<?xml version="1.0" encoding="UTF-8"?>
<svg version="1.1" xmlns="http://www.w3.org/2000/svg" width="500" height="500">
<path d="M0 0 C165 0 330 0 500 0 C500 165 500 330 500 500 C335 500 170 500 0 500 C0 335 0 170 0 0 Z " fill="#FEFEFE" transform="translate(0,0)"/>
<path d="M0 0 C4.09966152 1.77241006 7.5723361 4.12169968 10.05078125 7.875 C10.93159681 10.66351156 10.72226758 12.89850173 10.44775391 15.78125 C9.34970383 28.54571413 15.69968609 36.41296555 22.84375 46.4921875 C26.03786389 51.06957906 28.98470619 55.79792774 31.953125 60.5234375 C33.11878582 62.35741053 34.28544206 64.19075128 35.453125 66.0234375 C40.1053426 73.34165194 44.73423349 80.67454706 49.36035156 88.00927734 C51.84795857 91.95253995 54.33818914 95.89414518 56.828125 99.8359375 C57.82813724 101.4192631 58.82813725 103.00259643 59.828125 104.5859375 C60.323125 105.3696875 60.818125 106.1534375 61.328125 106.9609375 C77.828125 133.0859375 77.828125 133.0859375 79.32763672 135.46020508 C80.32921535 137.04601075 81.33084308 138.63178541 82.33251953 140.2175293 C84.80876684 144.13778507 87.28420201 148.05854857 89.7578125 151.98046875 C90.73950837 153.53650563 91.72127949 155.09249503 92.703125 156.6484375 C93.19006836 157.42010254 93.67701172 158.19176758 94.17871094 158.98681641 C96.91471303 163.31867137 99.6596873 167.6446453 102.4140625 171.96484375 C103.32152222 173.38953979 103.32152222 173.38953979 104.24731445 174.84301758 C105.4581883 176.73982184 106.67281305 178.63423735 107.89135742 180.52612305 C110.4124412 184.45432336 112.89518536 188.36374379 115.10546875 192.4765625 C118.2504716 198.21345931 120.14534467 201.64718702 126.515625 203.7734375 C127.44632812 204.0209375 128.37703125 204.2684375 129.3359375 204.5234375 C134.09210116 206.07403631 135.8341908 209.4900597 138.140625 213.7734375 C139.62347057 219.30040737 139.07445446 224.23583141 136.94921875 229.47265625 C134.43139505 233.65733188 130.34420784 235.83057655 125.828125 237.3359375 C115.55349032 238.31985071 115.55349032 238.31985071 111.203125 235.3984375 C108.828125 233.3359375 108.828125 233.3359375 107.828125 232.3359375 C100.63221438 232.8604854 93.73486497 234.33332972 86.703125 235.8984375 C84.22564001 236.44053982 81.74775034 236.98079482 79.26953125 237.51953125 C78.27982582 237.73482483 78.27982582 237.73482483 77.27012634 237.95446777 C71.82734932 239.13279639 66.37471646 240.2594266 60.91796875 241.37109375 C60.06797302 241.5443367 59.21797729 241.71757965 58.34222412 241.89607239 C54.95588438 242.58535979 51.5693339 243.2735474 48.18182373 243.95706177 C38.80586065 245.84927397 29.46694625 247.8212453 20.17866516 250.11087036 C17.31189647 250.80785261 14.79176805 251.3359375 11.828125 251.3359375 C11.910625 252.3671875 11.993125 253.3984375 12.078125 254.4609375 C11.77916761 259.09477699 10.85191652 260.84694729 7.828125 264.3359375 C2.44641268 268.68710916 -2.30202982 268.95402277 -9.140625 268.71875 C-14.60190334 268.02905248 -17.02287955 265.63611656 -20.546875 261.6484375 C-22.15527407 258.36977786 -22.35631836 257.13221654 -22.2734375 253.62890625 C-22.25877441 252.82348389 -22.24411133 252.01806152 -22.22900391 251.18823242 C-22.2007251 250.27134644 -22.2007251 250.27134644 -22.171875 249.3359375 C-23.28175781 249.20058594 -24.39164063 249.06523437 -25.53515625 248.92578125 C-37.01133387 247.44295864 -48.33758217 245.39203203 -59.671875 243.0859375 C-60.40286407 242.93743347 -61.13385315 242.78892944 -61.88699341 242.63592529 C-63.38903278 242.33073747 -64.89106207 242.02550001 -66.39308167 241.72021484 C-67.15023972 241.56633301 -67.90739777 241.41245117 -68.6875 241.25390625 C-69.83441566 241.0206665 -69.83441566 241.0206665 -71.00450134 240.78271484 C-79.31692346 239.09631017 -87.63963195 237.46496466 -95.9699707 235.86950684 C-97.59073228 235.55811985 -99.21102447 235.24427863 -100.83081055 234.92785645 C-103.09438555 234.48599662 -105.35941486 234.05251169 -107.625 233.62109375 C-108.91567383 233.37238525 -110.20634766 233.12367676 -111.53613281 232.86743164 C-118.60866061 231.68499193 -118.60866061 231.68499193 -124.921875 234.2734375 C-125.664375 234.9540625 -126.406875 235.6346875 -127.171875 236.3359375 C-132.17972632 238.00522127 -136.96881653 238.2310181 -142.171875 237.3359375 C-146.93589691 234.5774593 -150.23725615 231.16779044 -152.734375 226.2734375 C-153.79501426 219.15200247 -153.19714996 214.31522943 -149.171875 208.3359375 C-145.09015421 204.45830275 -141.3711331 202.04108846 -135.671875 202.1484375 C-134.9190625 202.15488281 -134.16625 202.16132813 -133.390625 202.16796875 C-131.21197357 202.33290187 -129.26982689 202.73992844 -127.171875 203.3359375 C-126.76594116 202.25227905 -126.76594116 202.25227905 -126.35180664 201.14672852 C-125.18845886 198.37544299 -123.84709726 195.93335342 -122.29296875 193.36328125 C-121.71047363 192.39608154 -121.12797852 191.42888184 -120.52783203 190.43237305 C-119.89474121 189.38992432 -119.26165039 188.34747559 -118.609375 187.2734375 C-117.94534668 186.17362549 -117.28131836 185.07381348 -116.59716797 183.94067383 C-114.81957091 180.99728374 -113.03710872 178.05687275 -111.25299072 175.11743164 C-110.19317523 173.37103665 -109.13426933 171.62409376 -108.07568359 169.87695312 C-104.19268987 163.46887131 -100.303542 157.06454985 -96.41047668 150.6625824 C-92.848193 144.80446068 -89.29005652 138.94382509 -85.73236084 133.08291626 C-83.9623744 130.16715011 -82.1921106 127.25155238 -80.421875 124.3359375 C-79.71354034 123.16927164 -79.00520701 122.00260497 -78.296875 120.8359375 C-76.88020833 118.50260417 -75.46354167 116.16927083 -74.046875 113.8359375 C-73.69626007 113.25845261 -73.34564514 112.68096771 -72.98440552 112.08598328 C-72.27597577 110.9191608 -71.56754071 109.75234154 -70.85910034 108.58552551 C-69.08969865 105.67126915 -67.32038886 102.75695707 -65.55126953 99.8425293 C-62.3468457 94.5638005 -59.14173209 89.28549657 -55.93322754 84.00924683 C-54.1373249 81.05591827 -52.34194838 78.10227016 -50.546875 75.1484375 C-50.19701538 74.57275024 -49.84715576 73.99706299 -49.48669434 73.40393066 C-43.64729871 63.79242747 -37.84879708 54.157001 -32.07958984 44.50317383 C-31.22034912 43.06687622 -31.22034912 43.06687622 -30.34375 41.6015625 C-29.80814453 40.69986328 -29.27253906 39.79816406 -28.72070312 38.86914062 C-27.72122474 37.2344326 -26.68542192 35.62113691 -25.60742188 34.03710938 C-22.8538529 30.22807544 -22.8538529 30.22807544 -22.33984375 25.73828125 C-22.61441406 24.94550781 -22.88898438 24.15273437 -23.171875 23.3359375 C-23.61358662 17.55023939 -23.98348276 12.22968895 -21.671875 6.8359375 C-15.24233976 0.40640226 -9.06944289 -2.7730311 0 0 Z " fill="#1F6398" transform="translate(257.171875,115.6640625)"/>
<path d="M0 0 C3.56951354 4.23146558 6.45894935 8.74932814 9.375 13.4375 C10.44488842 15.14479707 11.51521885 16.85181723 12.5859375 18.55859375 C13.1437793 19.4491748 13.70162109 20.33975586 14.27636719 21.25732422 C17.16351798 25.85141091 20.08276175 30.42498346 23 35 C28.86684861 44.21014864 34.70673182 53.43699263 40.53222656 62.67333984 C43.01983357 66.61660245 45.51006414 70.55820768 48 74.5 C49.00001224 76.0833256 50.00001225 77.66665893 51 79.25 C51.495 80.03375 51.99 80.8175 52.5 81.625 C69 107.75 69 107.75 70.49951172 110.12426758 C71.50109035 111.71007325 72.50271808 113.29584791 73.50439453 114.8815918 C75.98064184 118.80184757 78.45607701 122.72261107 80.9296875 126.64453125 C81.91138337 128.20056813 82.89315449 129.75655753 83.875 131.3125 C84.36194336 132.08416504 84.84888672 132.85583008 85.35058594 133.65087891 C88.08658803 137.98273387 90.8315623 142.3087078 93.5859375 146.62890625 C94.49339722 148.05360229 94.49339722 148.05360229 95.41918945 149.50708008 C96.6300633 151.40388434 97.84468805 153.29829985 99.06323242 155.19018555 C101.5843162 159.11838586 104.06706036 163.02780629 106.27734375 167.140625 C109.4223466 172.87752181 111.31721967 176.31124952 117.6875 178.4375 C118.61820312 178.685 119.54890625 178.9325 120.5078125 179.1875 C125.26397616 180.73809881 127.0060658 184.1541222 129.3125 188.4375 C130.79534557 193.96446987 130.24632946 198.89989391 128.12109375 204.13671875 C125.60327005 208.32139438 121.51608284 210.49463905 117 212 C106.72536532 212.98391321 106.72536532 212.98391321 102.375 210.0625 C100 208 100 208 99 207 C91.80408938 207.5245479 84.90673997 208.99739222 77.875 210.5625 C75.39751501 211.10460232 72.91962534 211.64485732 70.44140625 212.18359375 C69.45170082 212.39888733 69.45170082 212.39888733 68.44200134 212.61853027 C62.99922432 213.79685889 57.54659146 214.9234891 52.08984375 216.03515625 C51.23984802 216.2083992 50.38985229 216.38164215 49.51409912 216.56013489 C46.12775938 217.24942229 42.7412089 217.9376099 39.35369873 218.62112427 C29.97773565 220.51333647 20.63882125 222.4853078 11.35054016 224.77493286 C8.48377147 225.47191511 5.96364305 226 3 226 C3.0825 227.03125 3.165 228.0625 3.25 229.125 C2.95104261 233.75883949 2.02379152 235.51100979 -1 239 C-6.38171232 243.35117166 -11.13015482 243.61808527 -17.96875 243.3828125 C-23.43002834 242.69311498 -25.85100455 240.30017906 -29.375 236.3125 C-30.98339907 233.03384036 -31.18444336 231.79627904 -31.1015625 228.29296875 C-31.08689941 227.48754639 -31.07223633 226.68212402 -31.05712891 225.85229492 C-31.0288501 224.93540894 -31.0288501 224.93540894 -31 224 C-32.10988281 223.86464844 -33.21976563 223.72929687 -34.36328125 223.58984375 C-45.83945887 222.10702114 -57.16570717 220.05609453 -68.5 217.75 C-69.23098907 217.60149597 -69.96197815 217.45299194 -70.71511841 217.29998779 C-72.21715778 216.99479997 -73.71918707 216.68956251 -75.22120667 216.38427734 C-75.97836472 216.23039551 -76.73552277 216.07651367 -77.515625 215.91796875 C-78.66254066 215.684729 -78.66254066 215.684729 -79.83262634 215.44677734 C-88.14504846 213.76037267 -96.46775695 212.12902716 -104.7980957 210.53356934 C-106.41885728 210.22218235 -108.03914947 209.90834113 -109.65893555 209.59191895 C-111.92251055 209.15005912 -114.18753986 208.71657419 -116.453125 208.28515625 C-117.74379883 208.03644775 -119.03447266 207.78773926 -120.36425781 207.53149414 C-127.43678561 206.34905443 -127.43678561 206.34905443 -133.75 208.9375 C-134.4925 209.618125 -135.235 210.29875 -136 211 C-141.00785132 212.66928377 -145.79694153 212.8950806 -151 212 C-155.76402191 209.2415218 -159.06538115 205.83185294 -161.5625 200.9375 C-162.62313926 193.81606497 -162.02527496 188.97929193 -158 183 C-153.91827921 179.12236525 -150.1992581 176.70515096 -144.5 176.8125 C-143.7471875 176.81894531 -142.994375 176.82539063 -142.21875 176.83203125 C-140.04009857 176.99696437 -138.09795189 177.40399094 -136 178 C-135.59406616 176.91634155 -135.59406616 176.91634155 -135.17993164 175.81079102 C-134.01658386 173.03950549 -132.67522226 170.59741592 -131.12109375 168.02734375 C-130.53859863 167.06014404 -129.95610352 166.09294434 -129.35595703 165.09643555 C-128.72286621 164.05398682 -128.08977539 163.01153809 -127.4375 161.9375 C-126.77347168 160.83768799 -126.10944336 159.73787598 -125.42529297 158.60473633 C-123.64769591 155.66134624 -121.86523372 152.72093525 -120.08111572 149.78149414 C-119.02130023 148.03509915 -117.96239433 146.28815626 -116.90380859 144.54101562 C-113.02081487 138.13293381 -109.131667 131.72861235 -105.23860168 125.3266449 C-101.676318 119.46852318 -98.11818152 113.60788759 -94.56048584 107.74697876 C-92.7904994 104.83121261 -91.0202356 101.91561488 -89.25 99 C-88.54166534 97.83333414 -87.83333201 96.66666747 -87.125 95.5 C-85.70833333 93.16666667 -84.29166667 90.83333333 -82.875 88.5 C-82.52438507 87.92251511 -82.17377014 87.34503021 -81.81253052 86.75004578 C-81.10410077 85.5832233 -80.39566571 84.41640404 -79.68722534 83.24958801 C-77.91782365 80.33533165 -76.14851386 77.42101957 -74.37939453 74.5065918 C-71.17498021 69.22787866 -67.96987228 63.94959272 -64.76138306 58.6733551 C-55.60642474 43.61823342 -46.49648687 28.53748676 -37.44775391 13.41821289 C-36.96999512 12.62020264 -36.49223633 11.82219238 -36 11 C-35.49388184 10.10337646 -34.98776367 9.20675293 -34.46630859 8.28295898 C-33 6 -33 6 -30.5625 4.5 C-28 4 -28 4 -25.6875 5.375 C-25.130625 5.91125 -24.57375 6.4475 -24 7 C-24.58317387 11.19227684 -26.00173672 14.04236822 -28.21875 17.62890625 C-29.23316162 19.28345825 -29.23316162 19.28345825 -30.26806641 20.97143555 C-31.01199516 22.16848755 -31.75597442 23.36550818 -32.5 24.5625 C-33.26951407 25.81306811 -34.03821807 27.064135 -34.80615234 28.31567383 C-36.40372562 30.91782411 -38.00476986 33.51778828 -39.60839844 36.11621094 C-42.95442326 41.54306501 -46.2621053 46.99311175 -49.56787109 52.44454956 C-50.63173222 54.19859981 -51.69662919 55.95201772 -52.76171875 57.70532227 C-57.98498253 66.30698299 -63.16686464 74.93310562 -68.33642578 83.56713867 C-73.02785313 91.39629064 -77.75760941 99.20167604 -82.5 107 C-88.06502159 116.15273362 -93.61137989 125.31618563 -99.125 134.5 C-99.71603516 135.48355469 -100.30707031 136.46710938 -100.91601562 137.48046875 C-104.99832089 144.28895512 -109.01352884 151.13499779 -113 158 C-112.11699219 157.16597656 -111.23398438 156.33195313 -110.32421875 155.47265625 C-104.84028565 150.32071013 -99.38025921 145.20244944 -93.5 140.5 C-89.1429658 137.01437264 -85.05878467 133.32206333 -81 129.5 C-76.08693945 124.87379473 -71.04878041 120.52729122 -65.77734375 116.30859375 C-62.57556552 113.64720003 -59.53772551 110.84530653 -56.5 108 C-51.66357618 103.47210174 -46.69056277 99.19875865 -41.5234375 95.046875 C-37.92771407 92.13022009 -34.45613399 89.0798214 -31 86 C-27.63279613 87.39332574 -26.0140476 88.9789286 -24 92 C-31.55669279 99.16917008 -39.10252444 106.21360373 -47.24609375 112.71875 C-51.66444211 116.3787719 -55.82016149 120.31563258 -60.015625 124.2265625 C-64.62148226 128.51981799 -69.3810007 132.62329422 -74.17578125 136.703125 C-75.36745686 137.71843394 -76.5588541 138.73406967 -77.75 139.75 C-78.35360352 140.26473877 -78.95720703 140.77947754 -79.57910156 141.30981445 C-83.52465831 144.69089354 -87.38110932 148.15094207 -91.1875 151.6875 C-94.81283208 155.05583447 -98.51232393 158.2792202 -102.375 161.375 C-110.31707232 167.76570542 -117.81726543 174.76657005 -125 182 C-115.66557165 180.00510063 -106.33237303 178.00448947 -97 176 C-96.24704651 175.83828308 -95.49409302 175.67656616 -94.71832275 175.50994873 C-89.98390495 174.49280762 -85.24986096 173.4739467 -80.51623535 172.453125 C-78.92164538 172.10928162 -77.32700013 171.76569451 -75.7322998 171.42236328 C-68.13267776 169.78531753 -60.53676683 168.14056442 -52.96484375 166.37890625 C-51.94825684 166.14244385 -50.93166992 165.90598145 -49.88427734 165.66235352 C-48.07712077 165.23816111 -46.2713043 164.80819273 -44.46728516 164.37084961 C-40.21362532 163.3685706 -36.40797015 162.77358741 -32 163 C-32 161.35 -32 159.7 -32 158 C-31.67 158 -31.34 158 -31 158 C-30.67 161.63 -30.34 165.26 -30 169 C-29.01 169.33 -28.02 169.66 -27 170 C-27 170.33 -27 170.66 -27 171 C-32.27021965 172.148668 -37.54112996 173.29412503 -42.8125 174.4375 C-43.62489136 174.61373901 -44.43728271 174.78997803 -45.27429199 174.97155762 C-55.31993375 177.14862714 -65.37105906 179.29683396 -75.43359375 181.39453125 C-76.3797908 181.59183334 -77.32598785 181.78913544 -78.30085754 181.99241638 C-82.89618803 182.94971232 -87.49221349 183.90353169 -92.08911133 184.85327148 C-101.00138043 186.70145864 -109.88458306 188.61638106 -118.7230835 190.79412842 C-121.56681331 191.48493538 -124.06000526 192 -127 192 C-127 193.65 -127 195.3 -127 197 C-125.83855469 197.10054687 -124.67710937 197.20109375 -123.48046875 197.3046875 C-117.08907135 198.01829616 -110.82342768 199.36908641 -104.53118896 200.66763306 C-88.9019557 203.88948829 -73.23093343 206.84821152 -57.52856445 209.68994141 C-56.00597567 209.96621538 -54.48343173 210.24273669 -52.9609375 210.51953125 C-52.24419357 210.64967621 -51.52744965 210.77982117 -50.78898621 210.91390991 C-47.07732811 211.59479672 -43.38855384 212.33035221 -39.7109375 213.17578125 C-35.36991628 214.13994491 -31.41009005 214.72787894 -27 214 C-24.07139596 212.20954506 -24.07139596 212.20954506 -22 210 C-18.07247435 208.03623718 -13.29092979 208.66012437 -9 209 C-5.4634485 210.28601873 -3.61894472 211.2062607 -1.3125 214.1640625 C0.94906114 216.35816948 0.94906114 216.35816948 4.37890625 215.9453125 C5.77809164 215.69678539 7.17256293 215.42090609 8.5625 215.125 C9.74380493 214.90106567 9.74380493 214.90106567 10.94897461 214.67260742 C18.79256864 213.14502451 26.58341754 211.33548808 34.37304688 209.55639648 C47.39407268 206.61334954 60.50350249 204.12828012 73.61547852 201.62817383 C74.4870459 201.46096832 75.35861328 201.29376282 76.2565918 201.12149048 C77.90785558 200.80491322 79.55961254 200.49089463 81.21191406 200.17977905 C85.22073791 199.45451613 85.22073791 199.45451613 89 198 C90.99960012 197.960008 93.00047242 197.95653201 95 198 C94.67 196.02 94.34 194.04 94 192 C80.16940646 188.878204 66.33012415 185.83417429 52.4375 183 C39.92295746 180.44187161 27.47619081 177.63921304 15.04296875 174.71337891 C9.69880224 173.4605183 4.34921983 172.23107549 -1 171 C-0.525625 169.948125 -0.05125 168.89625 0.4375 167.8125 C1.69323741 164.89824149 2.52234381 162.15253086 3 159 C3.33 160.32 3.66 161.64 4 163 C5.70857178 163.19227173 5.70857178 163.19227173 7.45166016 163.38842773 C11.94990117 163.9527893 16.3444462 164.82789759 20.7734375 165.78515625 C22.01753891 166.05041359 22.01753891 166.05041359 23.28677368 166.32102966 C25.98368455 166.89769951 28.67936621 167.4798922 31.375 168.0625 C32.75945312 168.35954834 32.75945312 168.35954834 34.171875 168.66259766 C44.12799547 170.79924437 54.0699038 172.98352576 63.9765625 175.33984375 C65.13688492 175.61575096 65.13688492 175.61575096 66.32064819 175.89723206 C69.93741533 176.76041798 73.55113998 177.63457823 77.16162109 178.52368164 C84.09202348 180.21236735 90.86456076 181.58866291 98 182 C92.63594034 177.03020391 87.26139068 172.14819629 81.5625 167.5625 C77.0260327 163.90364231 72.741339 160.05131037 68.47851562 156.08398438 C65.26718772 153.1129881 61.97381211 150.30046168 58.5625 147.5625 C53.78458662 143.71954521 49.31005016 139.63168671 44.83837891 135.44384766 C40.62570895 131.52093146 36.23586445 127.88088976 31.74609375 124.27734375 C28.73680853 121.78173453 25.86062978 119.16233195 23 116.5 C18.40360628 112.22304677 13.65119731 108.21878413 8.7578125 104.28125 C4.01650467 100.35926166 -0.48701397 96.18127719 -5 92 C-3.27845212 88.23511958 -1.00765886 85.84936103 2 83 C2.4021875 83.73734375 2.804375 84.4746875 3.21875 85.234375 C5.06775333 88.10519595 6.93858574 90.00460438 9.5 92.25 C10.39074219 93.03246094 11.28148437 93.81492187 12.19921875 94.62109375 C14.87321252 96.89231021 17.58200681 99.10971559 20.3125 101.3125 C25.12665588 105.20320708 29.64924334 109.33000466 34.16333008 113.55786133 C37.51064243 116.67524726 40.92986788 119.63559167 44.5 122.5 C49.26108478 126.31994011 53.71273025 130.38938819 58.1640625 134.55859375 C61.51116869 137.67568554 64.93014141 140.63581113 68.5 143.5 C73.88576637 147.82433796 78.91511004 152.47035027 83.9609375 157.1796875 C87.5652995 160.54060291 91.26715506 163.78306654 95 167 C94.57517334 166.33500488 94.15034668 165.67000977 93.71264648 164.98486328 C89.45395433 158.30724334 85.24753363 151.5989427 81.0625 144.875 C73.77739548 133.19432659 66.36493816 121.59796867 58.93017578 110.01220703 C55.9014155 105.28556342 52.88728258 100.54965632 49.875 95.8125 C49.30515381 94.91644043 48.73530762 94.02038086 48.14819336 93.09716797 C47.00462933 91.29872305 45.86115569 89.50022065 44.71777344 87.70166016 C42.39750292 84.0524115 40.07575253 80.40410558 37.75390625 76.75585938 C36.00504017 74.00791947 34.256426 71.25981938 32.5078125 68.51171875 C30.14932214 64.80542555 27.78984664 61.09976197 25.4296875 57.39453125 C19.33721843 47.82816151 13.24617808 38.26106911 7.21557617 28.65551758 C4.9242359 25.01238406 2.60927184 21.3914915 0.21875 17.8125 C-0.21010498 17.16539062 -0.63895996 16.51828125 -1.08081055 15.8515625 C-2.22944934 14.12484762 -3.38967505 12.40585612 -4.55078125 10.6875 C-5.02902344 9.800625 -5.50726563 8.91375 -6 8 C-5.67 7.01 -5.34 6.02 -5 5 C-4.34 5 -3.68 5 -3 5 C-2.690625 4.360625 -2.38125 3.72125 -2.0625 3.0625 C-1 1 -1 1 0 0 Z " fill="#3FAAE2" transform="translate(266,141)"/>
<path d="M0 0 C1.70250393 1.28725907 3.37064759 2.62131719 5 4 C10.14101618 5.62347879 15.27499136 5.72981135 20.25 3.625 C22.2006552 2.47234011 24.11477149 1.25681901 26 0 C28.43338929 0.17642905 30.61613203 0.51974855 33 1 C33.94568848 1.18353027 34.89137695 1.36706055 35.86572266 1.55615234 C39.35235348 2.24655872 42.83265661 2.96366874 46.3125 3.6875 C47.59342529 3.95296631 48.87435059 4.21843262 50.1940918 4.49194336 C59.66113602 6.46558846 69.08596952 8.60217359 78.50097656 10.81030273 C87.89769569 13.00465515 97.33195507 14.98749372 106.78515625 16.921875 C120.81156998 19.81156998 120.81156998 19.81156998 122 21 C122.04080783 22.99958364 122.04254356 25.00045254 122 27 C107.40222581 30.18944354 92.80290353 33.27110558 78.11621094 36.02514648 C67.61481664 38.02104882 57.18542429 40.3263463 46.75878906 42.67749023 C29.14552438 46.61229799 29.14552438 46.61229799 25.79296875 44.8203125 C25.26316406 44.26085937 24.73335938 43.70140625 24.1875 43.125 C20.59065832 39.45126622 17.79587574 38.82174501 12.6875 38.6875 C6.95323336 38.71788022 4.066127 39.933873 0 44 C-5.92608215 44.50294918 -11.55110175 43.73729424 -17.328125 42.49609375 C-18.10324432 42.33743835 -18.87836365 42.17878296 -19.67697144 42.01531982 C-21.33948547 41.67418449 -23.00120601 41.32916248 -24.66217041 40.9805603 C-29.10714382 40.04777531 -33.55789736 39.14323459 -38.0078125 38.234375 C-38.91816254 38.04759689 -39.82851257 37.86081879 -40.76644897 37.66838074 C-50.96015736 35.58353698 -61.18414168 33.66436409 -71.41320801 31.76193237 C-80.97672474 29.98295062 -90.49920534 28.09385716 -100 26 C-100 24.35 -100 22.7 -100 21 C-90.4779692 18.50365469 -80.8803358 16.4249855 -71.25344849 14.38330078 C-67.57293982 13.60259567 -63.89350326 12.81689155 -60.213974 12.03158569 C-57.36540779 11.42373438 -54.51668969 10.81659834 -51.66796875 10.20947266 C-43.61038172 8.49111756 -35.55508373 6.76219469 -27.50143433 5.02548218 C-25.88172962 4.67650765 -24.26187776 4.32821531 -22.64187622 3.98062134 C-20.39762705 3.49907241 -18.15383836 3.0154331 -15.91015625 2.53125 C-14.64308838 2.25861328 -13.37602051 1.98597656 -12.07055664 1.70507812 C-3.23588296 -0.3235883 -3.23588296 -0.3235883 0 0 Z " fill="#FCFDFE" transform="translate(239,312)"/>
<path d="M0 0 C2 1 4 2 6 3 C5.41682613 7.19227684 3.99826328 10.04236822 1.78125 13.62890625 C0.76683838 15.28345825 0.76683838 15.28345825 -0.26806641 16.97143555 C-1.01199516 18.16848755 -1.75597442 19.36550818 -2.5 20.5625 C-3.26951407 21.81306811 -4.03821807 23.064135 -4.80615234 24.31567383 C-6.40372562 26.91782411 -8.00476986 29.51778828 -9.60839844 32.11621094 C-12.95442326 37.54306501 -16.2621053 42.99311175 -19.56787109 48.44454956 C-20.63173222 50.19859981 -21.69662919 51.95201772 -22.76171875 53.70532227 C-27.98498253 62.30698299 -33.16686464 70.93310562 -38.33642578 79.56713867 C-43.02785313 87.39629064 -47.75760941 95.20167604 -52.5 103 C-58.06502159 112.15273362 -63.61137989 121.31618563 -69.125 130.5 C-69.71603516 131.48355469 -70.30707031 132.46710938 -70.91601562 133.48046875 C-74.99832089 140.28895512 -79.01352884 147.13499779 -83 154 C-82.11699219 153.16597656 -81.23398438 152.33195313 -80.32421875 151.47265625 C-74.84028565 146.32071013 -69.38025921 141.20244944 -63.5 136.5 C-59.1429658 133.01437264 -55.05878467 129.32206333 -51 125.5 C-46.08693945 120.87379473 -41.04878041 116.52729122 -35.77734375 112.30859375 C-32.57556552 109.64720003 -29.53772551 106.84530653 -26.5 104 C-21.66357618 99.47210174 -16.69056277 95.19875865 -11.5234375 91.046875 C-7.92771407 88.13022009 -4.45613399 85.0798214 -1 82 C2.36720387 83.39332574 3.9859524 84.9789286 6 88 C-1.55669279 95.16917008 -9.10252444 102.21360373 -17.24609375 108.71875 C-21.66444211 112.3787719 -25.82016149 116.31563258 -30.015625 120.2265625 C-34.62148226 124.51981799 -39.3810007 128.62329422 -44.17578125 132.703125 C-45.36745686 133.71843394 -46.5588541 134.73406967 -47.75 135.75 C-48.35360352 136.26473877 -48.95720703 136.77947754 -49.57910156 137.30981445 C-53.52465831 140.69089354 -57.38110932 144.15094207 -61.1875 147.6875 C-64.81283208 151.05583447 -68.51232393 154.2792202 -72.375 157.375 C-80.31707232 163.76570542 -87.81726543 170.76657005 -95 178 C-85.66557165 176.00510063 -76.33237303 174.00448947 -67 172 C-66.24704651 171.83828308 -65.49409302 171.67656616 -64.71832275 171.50994873 C-59.98390495 170.49280762 -55.24986096 169.4739467 -50.51623535 168.453125 C-48.92164538 168.10928162 -47.32700013 167.76569451 -45.7322998 167.42236328 C-38.13267776 165.78531753 -30.53676683 164.14056442 -22.96484375 162.37890625 C-21.94825684 162.14244385 -20.93166992 161.90598145 -19.88427734 161.66235352 C-18.07712077 161.23816111 -16.2713043 160.80819273 -14.46728516 160.37084961 C-10.21362532 159.3685706 -6.40797015 158.77358741 -2 159 C-2 157.35 -2 155.7 -2 154 C-1.67 154 -1.34 154 -1 154 C-0.67 157.63 -0.34 161.26 0 165 C0.99 165.33 1.98 165.66 3 166 C3 166.33 3 166.66 3 167 C-2.27021965 168.148668 -7.54112996 169.29412503 -12.8125 170.4375 C-13.62489136 170.61373901 -14.43728271 170.78997803 -15.27429199 170.97155762 C-25.31993375 173.14862714 -35.37105906 175.29683396 -45.43359375 177.39453125 C-46.3797908 177.59183334 -47.32598785 177.78913544 -48.30085754 177.99241638 C-52.89618803 178.94971232 -57.49221349 179.90353169 -62.08911133 180.85327148 C-71.00138043 182.70145864 -79.88458306 184.61638106 -88.7230835 186.79412842 C-91.56681331 187.48493538 -94.06000526 188 -97 188 C-97 189.65 -97 191.3 -97 193 C-95.83855469 193.10054687 -94.67710937 193.20109375 -93.48046875 193.3046875 C-87.08975062 194.01822032 -80.82469757 195.36872117 -74.53311157 196.66708374 C-63.97915374 198.84343415 -53.41520444 200.95288557 -42.8125 202.87890625 C-41.97365768 203.0314386 -41.13481537 203.18397095 -40.27055359 203.34112549 C-36.22973569 204.07375249 -32.1876243 204.79833185 -28.14379883 205.51416016 C-18.31170143 207.2742494 -8.65763892 209.45082966 1 212 C0.47731534 214.76276177 -0.10869587 217.3260876 -1 220 C-13.61249786 218.4618905 -26.05409912 216.2822642 -38.5 213.75 C-39.23098907 213.60149597 -39.96197815 213.45299194 -40.71511841 213.29998779 C-42.21715778 212.99479997 -43.71918707 212.68956251 -45.22120667 212.38427734 C-45.97836472 212.23039551 -46.73552277 212.07651367 -47.515625 211.91796875 C-48.66254066 211.684729 -48.66254066 211.684729 -49.83262634 211.44677734 C-58.14504846 209.76037267 -66.46775695 208.12902716 -74.7980957 206.53356934 C-76.41885728 206.22218235 -78.03914947 205.90834113 -79.65893555 205.59191895 C-81.92251055 205.15005912 -84.18753986 204.71657419 -86.453125 204.28515625 C-87.74379883 204.03644775 -89.03447266 203.78773926 -90.36425781 203.53149414 C-97.43678561 202.34905443 -97.43678561 202.34905443 -103.75 204.9375 C-104.4925 205.618125 -105.235 206.29875 -106 207 C-111.00785132 208.66928377 -115.79694153 208.8950806 -121 208 C-125.76402191 205.2415218 -129.06538115 201.83185294 -131.5625 196.9375 C-132.62313926 189.81606497 -132.02527496 184.97929193 -128 179 C-123.91827921 175.12236525 -120.1992581 172.70515096 -114.5 172.8125 C-113.7471875 172.81894531 -112.994375 172.82539063 -112.21875 172.83203125 C-110.04009857 172.99696437 -108.09795189 173.40399094 -106 174 C-105.59406616 172.91634155 -105.59406616 172.91634155 -105.17993164 171.81079102 C-104.01658386 169.03950549 -102.67522226 166.59741592 -101.12109375 164.02734375 C-100.53859863 163.06014404 -99.95610352 162.09294434 -99.35595703 161.09643555 C-98.72286621 160.05398682 -98.08977539 159.01153809 -97.4375 157.9375 C-96.77347168 156.83768799 -96.10944336 155.73787598 -95.42529297 154.60473633 C-93.64769591 151.66134624 -91.86523372 148.72093525 -90.08111572 145.78149414 C-89.02130023 144.03509915 -87.96239433 142.28815626 -86.90380859 140.54101562 C-83.02081487 134.13293381 -79.131667 127.72861235 -75.23860168 121.3266449 C-71.676318 115.46852318 -68.11818152 109.60788759 -64.56048584 103.74697876 C-62.7904994 100.83121261 -61.0202356 97.91561488 -59.25 95 C-58.54166534 93.83333414 -57.83333201 92.66666747 -57.125 91.5 C-55.70833333 89.16666667 -54.29166667 86.83333333 -52.875 84.5 C-52.52438507 83.92251511 -52.17377014 83.34503021 -51.81253052 82.75004578 C-51.10410077 81.5832233 -50.39566571 80.41640404 -49.68722534 79.24958801 C-47.91782365 76.33533165 -46.14851386 73.42101957 -44.37939453 70.5065918 C-41.17498021 65.22787866 -37.96987228 59.94959272 -34.76138306 54.6733551 C-25.60642474 39.61823342 -16.49648687 24.53748676 -7.44775391 9.41821289 C-6.96999512 8.62020264 -6.49223633 7.82219238 -6 7 C-5.5054834 6.11368896 -5.0109668 5.22737793 -4.50146484 4.31420898 C-3 2 -3 2 0 0 Z " fill="#14578C" transform="translate(236,145)"/>
<path d="M0 0 C2.49558503 1.56613064 4.50638354 3.36706255 6.66015625 5.37890625 C10.15684578 8.5893171 13.70565018 11.66096864 17.41015625 14.62890625 C22.22351062 18.51896556 26.74527075 22.64512459 31.25878906 26.87207031 C35.47158766 30.79519218 39.86160977 34.43537039 44.3515625 38.0390625 C47.89443924 40.97718076 51.25207397 44.09871803 54.61962891 47.23291016 C57.83082498 50.20370691 61.12402466 53.01608946 64.53515625 55.75390625 C68.72003424 59.11987287 72.68076089 62.64820266 76.59765625 66.31640625 C81.39006249 70.80381551 86.32338848 75.02363129 91.44140625 79.140625 C95.79347723 82.70548314 100.06218885 86.39473728 104.09765625 90.31640625 C104.09765625 90.64640625 104.09765625 90.97640625 104.09765625 91.31640625 C96.66092801 90.83817154 89.73954778 89.68315626 82.53515625 87.81640625 C68.84703395 84.3965198 55.06248243 81.47794974 41.25952148 78.56445312 C30.5031139 76.28924625 19.78725205 73.88782856 9.09765625 71.31640625 C8.90880859 70.4464502 8.71996094 69.57649414 8.52539062 68.68017578 C6.92254673 60.65390197 6.92254673 60.65390197 2.09765625 54.31640625 C-1.36734375 52.83140625 -1.36734375 52.83140625 -4.90234375 51.31640625 C-4.90234375 34.48640625 -4.90234375 17.65640625 -4.90234375 0.31640625 C-1.90234375 -0.68359375 -1.90234375 -0.68359375 0 0 Z " fill="#FBFDFE" transform="translate(260.90234375,232.68359375)"/>
<path d="M0 0 C0 16.83 0 33.66 0 51 C-1.98 51.99 -3.96 52.98 -6 54 C-9.67253609 57.25281768 -10.50668917 60.55618816 -11.61328125 65.19140625 C-12.00640503 66.82057983 -12.00640503 66.82057983 -12.4074707 68.48266602 C-12.60300537 69.31338623 -12.79854004 70.14410645 -13 71 C-13.84143555 71.17015625 -14.68287109 71.3403125 -15.54980469 71.515625 C-33.01552179 75.05680032 -50.44323024 78.72719188 -67.83081055 82.63476562 C-81.18111198 85.63203776 -94.56358293 88.4116817 -108 91 C-107.23945313 90.24203125 -106.47890625 89.4840625 -105.6953125 88.703125 C-104.24163341 87.24523234 -102.79197441 85.78301637 -101.3671875 84.296875 C-98.07814497 80.88729164 -94.63411964 77.83880958 -90.9375 74.875 C-86.43964581 71.25944094 -82.19906878 67.45724358 -78 63.5 C-73.10920373 58.89402108 -68.09231107 54.57384886 -62.84375 50.375 C-59.44364815 47.5353545 -56.224149 44.53610629 -53 41.5 C-48.09039702 36.87705042 -43.05521457 32.53398821 -37.7890625 28.31640625 C-33.36898012 24.64538545 -29.20404954 20.70730853 -25.00390625 16.7890625 C-22.02802968 14.01454708 -18.99623516 11.31443764 -15.90234375 8.671875 C-14.46421772 7.40797779 -13.06715738 6.09714724 -11.69140625 4.765625 C-10.90636719 4.01796875 -10.12132812 3.2703125 -9.3125 2.5 C-8.60738281 1.8090625 -7.90226562 1.118125 -7.17578125 0.40625 C-5 -1 -5 -1 0 0 Z " fill="#FCFDFD" transform="translate(247,233)"/>
<path d="M0 0 C2.79991523 2.65455825 4.98271474 5.26971278 7.03125 8.53515625 C7.588125 9.416875 8.145 10.29859375 8.71875 11.20703125 C9.3065625 12.14933594 9.894375 13.09164062 10.5 14.0625 C11.11875 15.04476562 11.7375 16.02703125 12.375 17.0390625 C13.64671199 19.05868707 14.9162417 21.07968741 16.18359375 23.10205078 C18.29983112 26.4783596 20.42703707 29.84762393 22.55615234 33.21582031 C23.52586893 34.74992048 24.49493523 36.28443188 25.46337891 37.81933594 C31.02254555 46.62974501 36.62093999 55.41515129 42.21777344 64.20166016 C45.14654813 68.80023762 48.07317691 73.40018027 51 78 C52.16665613 79.83334004 53.3333228 81.66667337 54.5 83.5 C75.5 116.5 75.5 116.5 77.25268555 119.25439453 C78.41018944 121.0732137 79.56790159 122.89190034 80.72583008 124.71044922 C83.78447785 129.514739 86.83863708 134.32181093 89.88671875 139.1328125 C90.52287109 140.13570312 91.15902344 141.13859375 91.81445312 142.171875 C93.03453605 144.09550939 94.2533507 146.01994897 95.47070312 147.9453125 C96.02048828 148.8115625 96.57027344 149.6778125 97.13671875 150.5703125 C97.61842529 151.33102051 98.10013184 152.09172852 98.59643555 152.87548828 C99.98838582 154.98242015 101.46392899 156.99637975 103 159 C102.67 159.66 102.34 160.32 102 161 C101.11699219 160.16597656 100.23398437 159.33195313 99.32421875 158.47265625 C92.97783945 152.51042097 86.57961704 146.75241011 79.77734375 141.30859375 C76.57557201 138.64720542 73.53765082 135.84537754 70.5 133 C66.60423719 129.35111551 62.66665716 125.84301562 58.5 122.5 C53.73891522 118.68005989 49.28726975 114.61061181 44.8359375 110.44140625 C41.48883131 107.32431446 38.06985859 104.36418887 34.5 101.5 C29.65720636 97.61302089 25.07075183 93.50847271 20.58325195 89.21948242 C17.74661411 86.52130106 15.03365538 84.3675126 11.6875 82.3125 C10.0859375 81.01953125 10.0859375 81.01953125 9 79 C8.7462087 75.35628209 8.69922776 71.9020314 8.99291992 68.2668457 C9.26047352 64.43191075 9.16169977 62.34971289 7.51171875 58.78125 C5.10894994 56.12064131 3.98602813 55.48022322 0.8918457 54.0402832 C-1.75520747 52.41167779 -2.811434 51.63552138 -3.70527649 48.62301636 C-3.92754 45.57757669 -3.89923354 42.62560395 -3.78125 39.57421875 C-3.76993042 38.47149124 -3.75861084 37.36876373 -3.74694824 36.23262024 C-3.70221804 32.71580138 -3.60185222 29.20308298 -3.5 25.6875 C-3.4598691 23.30149123 -3.42336766 20.91541846 -3.390625 18.52929688 C-3.30249425 12.68480253 -3.16868959 6.84269413 -3 1 C-2.01 0.67 -1.02 0.34 0 0 Z " fill="#FCFDFE" transform="translate(259,148)"/>
<path d="M0 0 C1.32 0.33 2.64 0.66 4 1 C4 17.5 4 34 4 51 C1.69 52.32 -0.62 53.64 -3 55 C-6.1856217 58.53452313 -6.99212991 60.19646344 -7.0390625 64.98828125 C-6.90484854 66.43004695 -6.76670314 67.87145109 -6.625 69.3125 C-6.41061598 73.82564487 -6.30452595 76.93519498 -8.82421875 80.79296875 C-11.43028533 83.10447208 -14.11138841 85.05484623 -17 87 C-18.78487596 88.42002632 -20.5556558 89.85793635 -22.3125 91.3125 C-23.22644531 92.05113281 -24.14039063 92.78976563 -25.08203125 93.55078125 C-28.90244275 96.75747202 -32.5262385 100.15122603 -36.16552734 103.56005859 C-39.49102233 106.65736226 -42.88692543 109.59599759 -46.4375 112.4375 C-50.81251972 115.94643139 -54.92020909 119.65844505 -59 123.5 C-63.89950788 128.11340523 -68.92201799 132.45011439 -74.1796875 136.65625 C-79.6568606 141.2079174 -84.81142073 146.12488021 -90 151 C-90 147.65528014 -89.43831733 146.68770914 -87.75390625 143.87890625 C-87.25536133 143.04085449 -86.75681641 142.20280273 -86.24316406 141.33935547 C-85.68854492 140.42299316 -85.13392578 139.50663086 -84.5625 138.5625 C-83.98338867 137.5945752 -83.40427734 136.62665039 -82.80761719 135.62939453 C-80.88002274 132.41453318 -78.94133504 129.2065809 -77 126 C-76.33661621 124.90252441 -75.67323242 123.80504883 -74.98974609 122.67431641 C-69.30957565 113.28348186 -63.60240041 103.90912609 -57.88964844 94.53808594 C-55.799826 91.10970059 -53.71170437 87.68028404 -51.625 84.25 C-51.28028656 83.68347717 -50.93557312 83.11695435 -50.58041382 82.53326416 C-44.25042383 72.12337405 -38.03222275 61.64871474 -31.82791138 51.16357422 C-27.12431486 43.21761723 -22.39851318 35.29304599 -17.44946289 27.49658203 C-13.48026928 21.23276707 -9.70255874 14.85457011 -5.93188477 8.46972656 C-5.20763306 7.2510791 -5.20763306 7.2510791 -4.46875 6.0078125 C-4.04013672 5.28223145 -3.61152344 4.55665039 -3.16992188 3.80908203 C-2 2 -2 2 0 0 Z " fill="#FBFCFD" transform="translate(243,149)"/>
<path d="M0 0 C4.23216399 1.82969496 7.48332193 4.23695432 9.984375 8.140625 C11.73041821 12.68357076 11.60491512 17.58457129 10.828125 22.3359375 C8.75874856 26.38089428 6.24682977 29.33414794 2.828125 32.3359375 C0.848125 32.8309375 0.848125 32.8309375 -1.171875 33.3359375 C-1.171875 42.9059375 -1.171875 52.4759375 -1.171875 62.3359375 C-1.501875 62.3359375 -1.831875 62.3359375 -2.171875 62.3359375 C-2.501875 53.4259375 -2.831875 44.5159375 -3.171875 35.3359375 C-7.131875 35.0059375 -11.091875 34.6759375 -15.171875 34.3359375 C-15.171875 33.6759375 -15.171875 33.0159375 -15.171875 32.3359375 C-16.14125 32.0471875 -17.110625 31.7584375 -18.109375 31.4609375 C-21.171875 30.3359375 -21.171875 30.3359375 -22.171875 28.3359375 C-23.87399039 21.36828531 -24.52554311 13.49449643 -21.671875 6.8359375 C-15.24233976 0.40640226 -9.06944289 -2.7730311 0 0 Z " fill="#1A5F95" transform="translate(257.171875,115.6640625)"/>
<path d="M0 0 C5.2315874 1.90239542 8.78811443 4.51563459 11.25 9.5625 C12.60243895 15.76117852 13.10133063 21.5770726 10.4375 27.4375 C5.34111443 32.79523868 1.74620733 34.25027196 -5.5625 34.5 C-12.50229126 34.26124571 -15.62816712 32.49666619 -20.375 27.5 C-23.05579652 21.72597672 -23.11919402 15.13972368 -20.9765625 9.12890625 C-20.65429688 8.42636719 -20.33203125 7.72382813 -20 7 C-20.66 6.67 -21.32 6.34 -22 6 C-21.29875 5.7525 -20.5975 5.505 -19.875 5.25 C-16.88990279 4.10431719 -16.88990279 4.10431719 -14.375 1.875 C-9.57381903 -0.79232276 -5.37992241 -0.66547475 0 0 Z " fill="#175D94" transform="translate(257,350)"/>
<path d="M0 0 C3.10174952 2.87199029 5.79659323 6.01928493 6.23828125 10.3203125 C6.40600569 16.65853095 6.12553987 21.92977129 2 27 C-0.27484703 28.74286721 -2.36655808 29.78081392 -5 31 C-5.99 31.495 -5.99 31.495 -7 32 C-14.89735962 32.4556169 -19.60591246 30.65120233 -25.58203125 25.73046875 C-28.89408569 21.68848495 -28.3349156 15.64715126 -28.28125 10.65625 C-27.74754469 5.61569981 -25.08108285 3.00000164 -21.5 -0.3125 C-14.94112917 -4.73973781 -6.70987024 -3.81210657 0 0 Z " fill="#185E95" transform="translate(263,286)"/>
<path d="M0 0 C0.33 0 0.66 0 1 0 C1.495 5.445 1.495 5.445 2 11 C2.99 11.33 3.98 11.66 5 12 C5 12.33 5 12.66 5 13 C-0.27021965 14.148668 -5.54112996 15.29412503 -10.8125 16.4375 C-11.62489136 16.61373901 -12.43728271 16.78997803 -13.27429199 16.97155762 C-23.31993375 19.14862714 -33.37105906 21.29683396 -43.43359375 23.39453125 C-44.3797908 23.59183334 -45.32598785 23.78913544 -46.30085754 23.99241638 C-50.89618803 24.94971232 -55.49221349 25.90353169 -60.08911133 26.85327148 C-69.00138043 28.70145864 -77.88458306 30.61638106 -86.7230835 32.79412842 C-89.56681331 33.48493538 -92.06000526 34 -95 34 C-95.99 31.03 -96.98 28.06 -98 25 C-96.95328125 24.78085937 -95.9065625 24.56171875 -94.828125 24.3359375 C-82.66442677 21.78457462 -70.51069296 19.18776013 -58.359375 16.578125 C-53.43345505 15.52050873 -48.50632273 14.46882476 -43.578125 13.421875 C-41.15620609 12.90645629 -38.73433036 12.39083461 -36.3125 11.875 C-35.14581787 11.62685547 -33.97913574 11.37871094 -32.77709961 11.12304688 C-24.92141932 9.44148848 -17.10923447 7.63128509 -9.3203125 5.6640625 C-6.11352886 5.02270577 -3.25944943 4.87041944 0 5 C0 3.35 0 1.7 0 0 Z " fill="#195F95" transform="translate(234,299)"/>
<path d="M0 0 C8.5839903 1.25945812 17.09761895 2.72935403 25.60546875 4.42578125 C26.76838943 4.65524948 27.93131012 4.88471771 29.12947083 5.12113953 C32.81599047 5.84904202 36.50177319 6.58059466 40.1875 7.3125 C43.81221285 8.03005066 47.43708162 8.74680638 51.06204224 9.46310425 C53.45741177 9.9365262 55.85265617 10.41058171 58.24777222 10.88528442 C64.3365695 12.08975504 70.42810663 13.27681533 76.52587891 14.43505859 C77.72771317 14.66364059 78.92954742 14.8922226 80.1678009 15.12773132 C82.45984658 15.56238443 84.75238058 15.9944725 87.04545593 16.42366028 C88.57236809 16.71317818 88.57236809 16.71317818 90.13012695 17.00854492 C91.02552689 17.17658127 91.92092682 17.34461761 92.84346008 17.51774597 C95 18 95 18 97 19 C96.47731534 21.76276177 95.89130413 24.3260876 95 27 C81.7722833 25.38686382 68.74489991 23.03325189 55.69622803 20.36737061 C42.26050595 17.62329108 28.79692219 15.05607929 15.3125 12.5625 C14.34415222 12.3832901 13.37580444 12.2040802 12.37811279 12.0194397 C6.91933787 11.00970764 1.45995508 10.00333012 -4 9 C-2.68 6.03 -1.36 3.06 0 0 Z " fill="#1A5F95" transform="translate(140,338)"/>
<path d="M0 0 C0.33 1.32 0.66 2.64 1 4 C2.70857178 4.19227173 2.70857178 4.19227173 4.45166016 4.38842773 C8.94990472 4.95278974 13.3444369 5.82793083 17.7734375 6.78515625 C18.60288376 6.96194916 19.43233002 7.13874207 20.28691101 7.32089233 C22.9838167 7.89742799 25.67946594 8.47958759 28.375 9.0625 C29.75895462 9.36004684 29.75895462 9.36004684 31.17086792 9.66360474 C48.08237422 13.30156946 64.92451412 17.20138721 81.74658203 21.22998047 C85.82259793 22.19469262 89.9075162 23.10799093 94 24 C94 27.20395416 93.25664978 29.09399739 92 32 C80.43281423 30.80230774 69.3086132 28.6755194 58 26 C53.8969246 25.03695488 49.79256911 24.0795095 45.6875 23.125 C44.60637939 22.87298828 43.52525879 22.62097656 42.41137695 22.36132812 C32.50999725 20.0741231 22.56808669 18.00845213 12.60620117 16.00439453 C6.99474436 14.86774801 1.46997868 13.69785575 -4 12 C-3.525625 10.948125 -3.05125 9.89625 -2.5625 8.8125 C-1.30676259 5.89824149 -0.47765619 3.15253086 0 0 Z " fill="#3FA3D9" transform="translate(269,300)"/>
<path d="M0 0 C0.99 2.64 1.98 5.28 3 8 C-21.05393613 13.34761961 -45.10724165 18.69077365 -69.25 23.625 C-70.06856476 23.79257812 -70.88712952 23.96015625 -71.73049927 24.1328125 C-85.66991563 26.98149162 -85.66991563 26.98149162 -92 28 C-92.66 25.03 -93.32 22.06 -94 19 C-83.69919949 16.56698186 -73.3588616 14.3565889 -63 12.1875 C-61.32599214 11.83585554 -59.65200147 11.48412922 -57.97802734 11.13232422 C-50.10537281 9.47937623 -42.23062402 7.83698634 -34.3515625 6.21484375 C-33.35379791 6.00927101 -33.35379791 6.00927101 -32.33587646 5.79954529 C-29.25310052 5.16472489 -26.16988911 4.53216315 -23.0859375 3.90307617 C-18.50935816 2.96396914 -13.95272267 2.01635048 -9.4296875 0.84375 C-6.13760025 0.03385154 -3.37293447 -0.16864672 0 0 Z " fill="#3DA0D7" transform="translate(361,339)"/>
<path d="M0 0 C2.64 0 5.28 0 8 0 C8.67055824 16.34129019 9.1593085 32.64432779 9 49 C6.6739143 49.38063221 4.33944736 49.71269945 2 50 C-1.95419422 46.04580578 -0.08772688 31.71119313 -0.09765625 25.9765625 C-0.0948235 22.85930312 -0.07955327 19.74220898 -0.0625 16.625 C-0.05746856 15.00260557 -0.0529086 13.3802096 -0.04882812 11.7578125 C-0.03796742 7.83850279 -0.02079612 3.91926906 0 0 Z " fill="#125A92" transform="translate(247,150)"/>
<path d="M0 0 C2.64 0 5.28 0 8 0 C8 16.5 8 33 8 50 C4.04 49.505 4.04 49.505 0 49 C0 32.83 0 16.66 0 0 Z " fill="#125A92" transform="translate(248,234)"/>
<path d="M0 0 C3.14249107 2.02952548 4.63745366 3.46955631 5.51171875 7.16015625 C5.75802839 10.43881119 5.73398271 12.91530883 3.85546875 15.69140625 C1.43005003 17.93763837 -0.79056388 18.95636748 -4 19.625 C-7.96248343 18.79948262 -10.60628937 17.22260072 -13 14 C-14.04448452 11.25891894 -14.37074396 8.91298824 -14 6 C-10.45454065 0.2539107 -6.63120325 -1.07772902 0 0 Z " fill="#F7F9FB" transform="translate(256,358)"/>
<path d="M0 0 C3.37077687 0.06668803 4.26804112 0.38665155 7.25 2.3125 C9.57353289 5.87040974 10.04544168 8.02765527 9.80078125 12.21484375 C9.17326434 14.67595619 8.47724996 15.72209173 6.625 17.4375 C2.98506157 19.52709428 1.35363511 19.99946621 -2.75 19.375 C-6.01487218 18.44217938 -6.6738035 17.49745866 -8.5 14.5625 C-10.42340067 9.65782828 -10.42340067 9.65782828 -9.75 6.375 C-7.3125 3.625 -7.3125 3.625 -4.75 1.375 C-3.75 0.375 -3.75 0.375 0 0 Z " fill="#F7F9FB" transform="translate(251.75,290.625)"/>
<path d="M0 0 C2.35897745 3.77436392 2.43186882 7.17623651 1.5625 11.5 C-0.42977704 14.55067422 -1.77432874 16.09426669 -5.375 16.97265625 C-9.36131856 17.26710023 -11.07192228 16.76446048 -14.375 14.375 C-16.69008338 11.14791407 -17.4375 9.46239846 -17.4375 5.5 C-16.21853747 1.9785527 -15.35097852 0.08361128 -12.1875 -1.9375 C-7.60334164 -2.87516876 -4.00697348 -2.46582984 0 0 Z " fill="#FAFBFC" transform="translate(259.4375,209.5)"/>
<path d="M0 0 C2.4375 1.5 2.4375 1.5 4 4 C4.94476566 8.76839269 4.67629941 11.96441653 2 16.0625 C-1.32154831 18.20766662 -3.17868019 18.7595293 -7.0625 18.47265625 C-10.66317126 17.59426669 -12.00772296 16.05067422 -14 13 C-14.62886083 9.87239126 -14.6427262 7.12598652 -14 4 C-10.14213247 -1.3211966 -6.12903666 -1.39785047 0 0 Z " fill="#FBFCFD" transform="translate(256,124)"/>
<path d="M0 0 C0.33 0.99 0.66 1.98 1 3 C-0.40445835 5.2636564 -2.1967913 7.0208685 -4 9 C-4.66 8.67 -5.32 8.34 -6 8 C-5.67 7.01 -5.34 6.02 -5 5 C-4.34 5 -3.68 5 -3 5 C-2.5359375 4.0409375 -2.5359375 4.0409375 -2.0625 3.0625 C-1 1 -1 1 0 0 Z " fill="#3686BD" transform="translate(266,141)"/>
</svg>
